<svg height="512pt" viewBox="0 -29 512 512" width="512pt" xmlns="http://www.w3.org/2000/svg"><path d="m296 392h216v40h-216c-10.839844 0-20 9.617188-20 21h-40c0-11.382812-9.160156-21-20-21h-216v-40h216c14.875 0 28.9375 5.566406 40 15.734375 11.0625-10.167969 25.125-15.734375 40-15.734375zm216-392v352h-216c-11.027344 0-20 8.972656-20 20h-40c0-11.027344-8.972656-20-20-20h-216v-352h216c15.355469 0 29.375 5.804688 40 15.328125 10.625-9.523437 24.644531-15.328125 40-15.328125zm-276 315.425781v-255.425781c0-11.027344-8.972656-20-20-20h-176v272h176c7.007812 0 13.742188 1.207031 20 3.425781zm236-275.425781h-176c-11.027344 0-20 8.972656-20 20v255.441406c6.261719-2.222656 12.988281-3.441406 20-3.441406h176zm-123 231c23.746094 0 43-19.253906 43-43v-85.3125c21.0625-3.039062 34.570312-9.941406 36.410156-10.921875l10.589844-6.765625v-45l-29.339844 16.429688c-1.167968.574218-16.070312 7.6875-37.660156 7.6875h-20v81c-.992188-.066407-1.988281-.117188-3-.117188-23.746094 0-43 19.253906-43 43 0 23.75 19.253906 43 43 43zm0 0"/></svg>